<svg width="72" height="72" viewBox="0 0 72 72" fill="none" xmlns="http://www.w3.org/2000/svg">
<path fill-rule="evenodd" clip-rule="evenodd" d="M36 70C54.7777 70 70 54.7777 70 36C70 17.2223 54.7777 2 36 2C17.2223 2 2 17.2223 2 36C2 54.7777 17.2223 70 36 70ZM36 72C55.8823 72 72 55.8823 72 36C72 16.1177 55.8823 0 36 0C16.1177 0 0 16.1177 0 36C0 55.8823 16.1177 72 36 72Z" fill="white"/>
<g clip-path="url(#clip0)">
<path d="M32.1437 34.7297C32.1437 34.7297 35.9284 34.4635 35.9284 30.2581C35.9284 26.0524 32.8321 24 28.9099 24H16.0036V47.5019H28.9099C28.9099 47.5019 36.7887 47.7377 36.7887 40.5652C36.7887 40.5653 37.1322 34.7297 32.1437 34.7297ZM27.9809 28.1772H28.9099C28.9099 28.1772 30.6642 28.1772 30.6642 30.6225C30.6642 33.0674 29.6325 33.4219 28.4622 33.4219H21.6903V28.1772H27.9809ZM28.5452 43.3248H21.6903V37.0442H28.9099C28.9099 37.0442 31.5247 37.0118 31.5247 40.2718C31.5247 43.0208 29.5717 43.3041 28.5452 43.3248ZM47.2965 29.9796C37.7583 29.9796 37.7668 39.0097 37.7668 39.0097C37.7668 39.0097 37.1124 47.9935 47.2965 47.9935C47.2965 47.9935 55.7832 48.4529 55.7832 41.744H51.4186C51.4186 41.744 51.5642 44.2704 47.4421 44.2704C47.4421 44.2704 43.0768 44.5476 43.0768 40.1816H55.9288C55.9288 40.1816 57.335 29.9796 47.2965 29.9796ZM43.0288 37.0442C43.0288 37.0442 43.5618 33.4218 47.3935 33.4218C51.2244 33.4218 51.1764 37.0442 51.1764 37.0442H43.0288ZM52.1931 28.2786H41.9603V25.3846H52.1931V28.2786Z" fill="white"/>
</g>
<defs>
<clipPath id="clip0">
<rect width="40" height="24" fill="white" transform="translate(16 24)"/>
</clipPath>
</defs>
</svg>
