<svg width="72" height="72" viewBox="0 0 72 72" fill="none" xmlns="http://www.w3.org/2000/svg">
<path fill-rule="evenodd" clip-rule="evenodd" d="M68.011 34.0879C68.011 34.0879 68.011 34.0878 68.011 34.0878C68.0095 34.0657 68.008 34.0435 68.0065 34.0214C68.008 34.0436 68.0095 34.0657 68.011 34.0879ZM45.0906 32.9943C44.3178 31.1542 43.7384 29.8392 42.9871 28.3367C43.2196 28.8016 43.4449 29.2737 43.6652 29.7508C44.1568 30.8155 44.6237 31.9049 45.0906 32.9943ZM38.2539 36.3757C38.1757 36.4009 38.0976 36.4264 38.0197 36.452C38.0976 36.4264 38.1757 36.4009 38.2539 36.3757ZM49.2325 39.5404C49.2325 39.5404 49.2324 39.5404 49.2324 39.5404C49.225 39.5412 49.2176 39.5421 49.2102 39.5429C49.2176 39.5421 49.2251 39.5412 49.2325 39.5404ZM62.0022 14.7209L60.7367 13.1812L59.5409 14.7757C58.9714 15.5349 53.7724 22.2931 42.401 26.8854L40.8289 27.5202L41.5872 29.0367C42.3144 30.4911 42.9726 32.0259 43.6521 33.6114C43.7559 33.8536 43.8614 34.1171 43.9756 34.4025L43.9791 34.4113L43.9792 34.4115C44.0894 34.6869 44.208 34.9836 44.3283 35.2642L44.7898 36.341L45.953 36.2018C56.3614 34.9557 66.7519 37.0155 67.7527 37.23L69.6847 37.644L69.6456 35.6685C69.4884 27.7299 66.7344 20.4784 62.0022 14.7209ZM58.5278 12.954L59.3666 11.8006L58.2959 10.8584C52.3888 5.66008 44.5122 2.42922 36 2.42922C33.2485 2.42922 30.6568 2.74398 28.1525 3.29181L25.8783 3.78928L27.1972 5.70761C27.303 5.86162 27.484 6.11523 27.7296 6.45952L27.7299 6.45982C29.4761 8.90721 34.4911 15.9356 39.057 24.35L39.7067 25.5474L40.9823 25.069C52.7728 20.6476 57.8075 13.9444 58.5278 12.954ZM23.5885 6.07404L22.8262 5.03454L21.6598 5.58341C12.2793 9.99778 5.27357 18.6621 2.99106 29.1302L2.57707 31.0289H4.52035L4.60019 31.0289C6.41578 31.0303 19.6162 31.04 34.5978 27.0699L36.5539 26.5515L35.5605 24.7885C30.1842 15.2474 24.4348 7.22819 23.5885 6.07404ZM4.00613 33.5356L2.35409 33.4438V36.0751C2.35409 44.6649 5.58716 52.5501 11.0248 58.5394L12.4149 60.0706L13.511 58.3169L13.5592 58.2393C14.5673 56.6169 23.0789 42.9178 38.7346 37.8652L38.7418 37.8629L38.7489 37.8605C38.8949 37.8119 39.0411 37.7738 39.2408 37.7219L39.2409 37.7218L39.3158 37.7024C39.5274 37.6472 39.8223 37.5693 40.1124 37.4533L41.616 36.8519L40.9638 35.3696C40.1219 33.4562 39.206 31.6244 38.3097 29.8317L38.3094 29.8312L37.7125 28.6375L36.4512 29.0165C20.6734 33.7572 5.23919 33.6041 4.00613 33.5356ZM14.9159 60.619L14.342 61.7667L15.3549 62.5545C21.0262 66.9655 28.1981 69.6459 36 69.6459C40.6436 69.6459 45.1372 68.7017 49.1668 66.9635L50.2823 66.4822L50.0928 65.2822C49.629 62.3442 47.7265 52.4668 43.1708 40.6221L42.7849 39.6188H41.7099L41.6964 39.6187C41.5939 39.6178 41.2009 39.6143 40.7815 39.847C22.2807 46.3663 15.6093 59.2322 14.9159 60.619ZM52.334 62.8342L52.7072 65.2599L54.7493 63.8985C62.3202 58.8512 67.6784 50.7326 69.1756 41.3557L69.3983 39.9605L68.0332 39.5965C68.0118 39.5908 67.9875 39.5842 67.9604 39.5768C67.9224 39.5664 67.8787 39.5544 67.8297 39.5408C66.0739 39.0566 57.3523 36.6509 47.4029 38.2102L45.5205 38.5052L46.1754 40.2945C50.3406 51.6744 52.0461 60.9624 52.334 62.8342ZM0 36C0 16.1284 16.1284 0 36 0C55.7985 0 72 16.1305 72 36C72 55.8695 55.7985 72 36 72C16.1284 72 0 55.8716 0 36Z" fill="white"/>
</svg>
