<svg width="256" height="256" viewBox="0 0 256 256" fill="none" xmlns="http://www.w3.org/2000/svg">
<rect width="256" height="256" fill="#DFFF80"/>
<path d="M69.8872 50.4337H74.2157C83.6972 50.4337 90.4991 52.5531 94.6215 56.7919C98.7439 61.0307 100.805 67.7307 100.805 76.892V95.7616H78.3381V79.9686C78.3381 73.9522 76.1395 70.944 71.7423 70.944C69.1315 70.944 67.3451 71.7644 66.3832 73.4053C65.4213 75.0461 64.9404 77.7808 64.9404 81.6094V84.4809C64.9404 88.8564 65.5588 92.6166 66.7955 95.7616C68.0322 98.9065 70.5743 102.94 74.4219 107.863L89.2624 126.937C94.6215 133.911 98.263 139.996 100.187 145.192C102.111 150.251 103.072 157.019 103.072 165.497V170.419C103.072 194.211 93.0413 206.107 72.979 206.107H68.4444C49.4815 206.107 40 196.467 40 177.188V159.6H63.0853V173.291C63.0853 180.401 65.6275 183.956 70.7117 183.956C73.46 183.956 75.3838 182.999 76.4831 181.085C77.7198 179.034 78.3381 175.615 78.3381 170.829V167.343C78.3381 161.737 77.7885 157.429 76.6892 154.421C75.5899 151.413 72.979 147.174 68.8567 141.705L54.0161 122.835C49.2066 116.545 45.84 110.666 43.9163 105.196C42.1299 99.5902 41.2367 92.8901 41.2367 85.0962V80.1737C41.2367 60.347 50.7869 50.4337 69.8872 50.4337Z" fill="#001500"/>
<path d="M155.164 204.466V51.8693H190.823C200.304 51.8693 207.038 54.3989 211.023 59.4582C215.008 64.3806 217 71.6276 217 81.1991V174.111C217 194.348 208.274 204.466 190.823 204.466H155.164ZM178.456 72.5848V182.315H184.021C187.456 182.315 189.792 181.426 191.029 179.649C192.403 177.735 193.09 174.658 193.09 170.419V84.4808C193.09 80.1052 192.472 77.0287 191.235 75.2511C189.998 73.4736 187.937 72.5848 185.052 72.5848H178.456Z" fill="#001500"/>
<path d="M128.528 178.213C134.505 178.213 139.35 183.058 139.35 189.034V193.645C139.35 199.622 134.505 204.466 128.528 204.466C122.552 204.466 117.707 199.622 117.707 193.645V189.034C117.707 183.058 122.552 178.213 128.528 178.213Z" fill="#001500"/>
<path d="M128.528 50.6388C134.505 50.6388 139.35 55.4836 139.35 61.46V66.0708C139.35 72.0472 134.505 76.892 128.528 76.892C122.552 76.892 117.707 72.0472 117.707 66.0708V61.46C117.707 55.4836 122.552 50.6388 128.528 50.6388Z" fill="#001500"/>
</svg>
