<svg width="72" height="72" viewBox="0 0 72 72" fill="none" xmlns="http://www.w3.org/2000/svg">
<path fill-rule="evenodd" clip-rule="evenodd" d="M36 70C54.7777 70 70 54.7777 70 36C70 17.2223 54.7777 2 36 2C17.2223 2 2 17.2223 2 36C2 54.7777 17.2223 70 36 70ZM36 72C55.8823 72 72 55.8823 72 36C72 16.1177 55.8823 0 36 0C16.1177 0 0 16.1177 0 36C0 55.8823 16.1177 72 36 72Z" fill="white"/>
<g clip-path="url(#clip0)">
<path d="M36.3149 52.0004C36.209 52.0004 36.103 52.0004 35.9963 51.9999C33.488 52.006 31.1704 51.9423 28.9165 51.8051C26.8501 51.6794 24.9639 50.9653 23.4614 49.7402C22.0117 48.558 21.0217 46.9596 20.519 44.9899C20.0815 43.2751 20.0583 41.5917 20.0361 39.9635C20.02 38.7953 20.0034 37.4111 20 36.0033C20.0034 34.5898 20.02 33.2055 20.0361 32.0373C20.0583 30.4093 20.0815 28.726 20.519 27.0109C21.0217 25.0412 22.0117 23.4428 23.4614 22.2607C24.9639 21.0356 26.8501 20.3214 28.9167 20.1957C31.1707 20.0587 33.4888 19.9948 36.0024 20.0009C38.5115 19.9955 40.8284 20.0587 43.0823 20.1957C45.1487 20.3214 47.0349 21.0356 48.5374 22.2607C49.9873 23.4428 50.9771 25.0412 51.4797 27.0109C51.9172 28.7257 51.9404 30.4093 51.9626 32.0373C51.9788 33.2055 51.9956 34.5898 51.9988 35.9975V36.0033C51.9956 37.4111 51.9788 38.7953 51.9626 39.9635C51.9404 41.5915 51.9175 43.2748 51.4797 44.9899C50.9771 46.9596 49.9873 48.558 48.5374 49.7402C47.0349 50.9653 45.1487 51.6794 43.0823 51.8051C40.9238 51.9365 38.7065 52.0004 36.3149 52.0004ZM35.9963 49.4999C38.4639 49.5058 40.7295 49.4435 42.9304 49.3097C44.4929 49.2148 45.8477 48.7077 46.9575 47.8027C47.9834 46.966 48.6899 45.8117 49.0574 44.3718C49.4216 42.9443 49.4426 41.4115 49.4629 39.9294C49.4788 38.769 49.4954 37.3945 49.4988 36.0004C49.4954 34.6061 49.4788 33.2319 49.4629 32.0715C49.4426 30.5893 49.4216 29.0566 49.0574 27.6288C48.6899 26.1889 47.9834 25.0346 46.9575 24.1979C45.8477 23.2931 44.4929 22.786 42.9304 22.6911C40.7295 22.557 38.4639 22.4953 36.0022 22.5006C33.5352 22.4948 31.2693 22.557 29.0684 22.6911C27.5059 22.786 26.1511 23.2931 25.0413 24.1979C24.0154 25.0346 23.3088 26.1889 22.9414 27.6288C22.5771 29.0566 22.5562 30.589 22.5359 32.0715C22.52 33.2328 22.5034 34.6081 22.5 36.0033C22.5034 37.3925 22.52 38.768 22.5359 39.9294C22.5562 41.4115 22.5771 42.9443 22.9414 44.3718C23.3088 45.8117 24.0154 46.966 25.0413 47.8027C26.1511 48.7075 27.5059 49.2145 29.0684 49.3095C31.2693 49.4435 33.5356 49.506 35.9963 49.4999ZM35.9368 43.8129C31.6292 43.8129 28.1243 40.3083 28.1243 36.0004C28.1243 31.6925 31.6292 28.1879 35.9368 28.1879C40.2446 28.1879 43.7493 31.6925 43.7493 36.0004C43.7493 40.3083 40.2446 43.8129 35.9368 43.8129ZM35.9368 30.6879C33.0076 30.6879 30.6243 33.0712 30.6243 36.0004C30.6243 38.9296 33.0076 41.3129 35.9368 41.3129C38.8662 41.3129 41.2493 38.9296 41.2493 36.0004C41.2493 33.0712 38.8662 30.6879 35.9368 30.6879ZM44.6243 25.6879C43.5889 25.6879 42.7493 26.5273 42.7493 27.5629C42.7493 28.5985 43.5889 29.4379 44.6243 29.4379C45.6599 29.4379 46.4993 28.5985 46.4993 27.5629C46.4993 26.5273 45.6599 25.6879 44.6243 25.6879Z" fill="white"/>
</g>
<defs>
<clipPath id="clip0">
<rect width="32" height="32" fill="white" transform="translate(20 20)"/>
</clipPath>
</defs>
</svg>
